<svg xmlns="http://www.w3.org/2000/svg" xmlns:xlink="http://www.w3.org/1999/xlink" width="500" zoomAndPan="magnify" viewBox="0 0 375 374.999991" height="500" preserveAspectRatio="xMidYMid meet" version="1.2"><defs><clipPath id="69ecf999ae"><path d="M 212.195312 141.238281 L 260.945312 141.238281 L 260.945312 207.886719 L 212.195312 207.886719 Z M 212.195312 141.238281 "/></clipPath><clipPath id="5f5d663091"><path d="M 32.339844 141.871094 L 122.339844 141.871094 L 122.339844 207.871094 L 32.339844 207.871094 Z M 32.339844 141.871094 "/></clipPath></defs><g id="df1210bc35"><g clip-rule="nonzero" clip-path="url(#69ecf999ae)"><path style=" stroke:none;fill-rule:nonzero;fill:#000000;fill-opacity:1;" d="M 236.570312 196.144531 C 229.339844 196.144531 223.449219 190.265625 223.449219 183.03125 C 223.449219 175.800781 229.339844 169.917969 236.570312 169.917969 C 243.804688 169.917969 249.691406 175.800781 249.695312 183.03125 C 249.691406 190.265625 243.804688 196.144531 236.570312 196.144531 Z M 236.570312 158.667969 C 231.742188 158.667969 227.242188 160.085938 223.449219 162.519531 L 223.449219 126.144531 L 212.195312 126.144531 L 212.195312 183.644531 L 212.210938 183.644531 C 212.546875 196.796875 223.347656 207.394531 236.570312 207.394531 C 250 207.394531 260.933594 196.472656 260.945312 183.019531 C 260.933594 169.59375 250 158.667969 236.570312 158.667969 "/></g><path style=" stroke:none;fill-rule:nonzero;fill:#000000;fill-opacity:1;" d="M 70.660156 172.140625 C 70.65625 172.175781 70.65625 172.210938 70.65625 172.246094 L 70.65625 182.769531 L 58.988281 182.769531 C 53.21875 182.769531 47.777344 180.058594 44.289062 175.445312 L 42.4375 172.996094 C 42.171875 172.644531 42.421875 172.136719 42.859375 172.140625 L 70.660156 172.140625 "/><path style=" stroke:none;fill-rule:nonzero;fill:#000000;fill-opacity:1;" d="M 70.734375 185.597656 C 70.738281 185.671875 70.746094 185.742188 70.75 185.8125 C 71.050781 189.554688 72.0625 193.050781 73.765625 196.230469 L 68.296875 196.230469 C 62.675781 196.230469 57.378906 193.589844 53.980469 189.097656 L 51.761719 186.160156 C 51.589844 185.929688 51.75 185.597656 52.039062 185.597656 L 70.734375 185.597656 "/><g clip-rule="nonzero" clip-path="url(#5f5d663091)"><path style=" stroke:none;fill-rule:nonzero;fill:#000000;fill-opacity:1;" d="M 115.109375 165.691406 C 110.308594 160.867188 104.507812 158.457031 97.714844 158.457031 L 83.761719 158.457031 C 83.703125 158.457031 83.65625 158.410156 83.65625 158.347656 L 83.65625 141.980469 C 83.65625 141.921875 83.609375 141.875 83.546875 141.875 L 73.214844 141.875 C 73.15625 141.875 73.109375 141.921875 73.109375 141.980469 L 73.109375 158.347656 C 73.109375 158.410156 73.0625 158.457031 73.003906 158.457031 L 33.246094 158.457031 C 32.683594 158.457031 32.363281 159.101562 32.703125 159.554688 L 36.539062 164.625 C 38.664062 167.433594 41.976562 169.085938 45.492188 169.085938 L 96.59375 169.085938 C 96.960938 169.0625 97.335938 169.046875 97.714844 169.046875 C 100.941406 169.046875 103.777344 169.996094 106.214844 171.894531 C 106.230469 171.90625 107.59375 173.109375 107.660156 173.175781 C 110.402344 175.929688 111.773438 179.261719 111.773438 183.167969 C 111.773438 183.925781 111.722656 184.660156 111.617188 185.375 C 111.191406 188.34375 109.871094 190.9375 107.660156 193.15625 C 106.445312 194.378906 105.117188 195.328125 103.671875 196.007812 C 101.863281 196.859375 99.878906 197.289062 97.714844 197.289062 C 95.550781 197.289062 93.5625 196.859375 91.753906 196.007812 C 90.3125 195.328125 88.984375 194.378906 87.765625 193.15625 C 85.554688 190.9375 84.238281 188.34375 83.808594 185.375 C 83.707031 184.660156 83.65625 183.925781 83.65625 183.167969 C 83.65625 182.957031 83.65625 182.753906 83.667969 182.546875 C 83.804688 178.90625 85.171875 175.785156 87.765625 173.175781 L 87.78125 173.164062 C 88.238281 172.703125 87.921875 171.914062 87.273438 171.914062 L 73.214844 171.914062 C 73.15625 171.914062 73.109375 171.964844 73.109375 172.019531 L 73.109375 183.167969 C 73.109375 183.914062 73.136719 184.648438 73.195312 185.375 C 73.507812 189.265625 74.652344 192.808594 76.628906 196.007812 C 77.636719 197.640625 78.867188 199.1875 80.3125 200.640625 C 85.117188 205.464844 90.917969 207.878906 97.714844 207.878906 C 104.507812 207.878906 110.308594 205.464844 115.109375 200.640625 C 119.914062 195.816406 122.316406 189.992188 122.316406 183.167969 C 122.316406 176.339844 119.914062 170.515625 115.109375 165.691406 "/></g><g style="fill:#000000;fill-opacity:1;"><g transform="translate(120.795304, 205.877593)"><path style="stroke:none" d="M 22.1875 0.40625 C 19.46875 0.40625 16.921875 -0.113281 14.546875 -1.15625 C 12.179688 -2.195312 10.09375 -3.609375 8.28125 -5.390625 C 6.488281 -7.148438 5.066406 -9.226562 4.015625 -11.625 C 2.960938 -14.03125 2.4375 -16.59375 2.4375 -19.3125 C 2.4375 -22.1875 2.96875 -24.828125 4.03125 -27.234375 C 5.101562 -29.648438 6.554688 -31.738281 8.390625 -33.5 C 10.234375 -35.226562 12.363281 -36.585938 14.78125 -37.578125 C 17.207031 -38.566406 19.78125 -39.0625 22.5 -39.0625 C 25.21875 -39.0625 27.753906 -38.578125 30.109375 -37.609375 C 32.472656 -36.648438 34.535156 -35.320312 36.296875 -33.625 C 38.054688 -31.914062 39.441406 -29.890625 40.453125 -27.546875 C 41.460938 -25.203125 41.96875 -22.65625 41.96875 -19.90625 C 41.96875 -18.570312 41.617188 -17.675781 40.921875 -17.21875 C 40.234375 -16.769531 39.050781 -16.546875 37.375 -16.546875 L 12.109375 -16.546875 C 12.210938 -15.328125 12.550781 -14.171875 13.125 -13.078125 C 13.695312 -11.984375 14.4375 -11.007812 15.34375 -10.15625 C 16.25 -9.332031 17.289062 -8.660156 18.46875 -8.140625 C 19.644531 -7.617188 20.898438 -7.359375 22.234375 -7.359375 C 24.867188 -7.359375 27.1875 -8.210938 29.1875 -9.921875 C 29.738281 -10.234375 30.398438 -10.398438 31.171875 -10.421875 C 31.953125 -10.453125 32.703125 -10.335938 33.421875 -10.078125 C 34.140625 -9.804688 34.75 -9.367188 35.25 -8.765625 C 35.757812 -8.171875 36.015625 -7.421875 36.015625 -6.515625 C 36.015625 -5.472656 35.585938 -4.53125 34.734375 -3.6875 C 33.878906 -2.851562 32.789062 -2.128906 31.46875 -1.515625 C 30.132812 -0.929688 28.640625 -0.460938 26.984375 -0.109375 C 25.328125 0.234375 23.726562 0.40625 22.1875 0.40625 Z M 22.5 -31.375 C 21.195312 -31.375 19.945312 -31.144531 18.75 -30.6875 C 17.550781 -30.238281 16.484375 -29.617188 15.546875 -28.828125 C 14.617188 -28.023438 13.835938 -27.082031 13.203125 -26 C 12.578125 -24.925781 12.1875 -23.75 12.03125 -22.46875 L 32.46875 -22.46875 C 32.351562 -23.75 32.007812 -24.925781 31.4375 -26 C 30.863281 -27.082031 30.140625 -28.023438 29.265625 -28.828125 C 28.359375 -29.617188 27.320312 -30.238281 26.15625 -30.6875 C 25 -31.144531 23.78125 -31.375 22.5 -31.375 Z M 22.5 -31.375 "/></g></g><g style="fill:#000000;fill-opacity:1;"><g transform="translate(161.766924, 205.877593)"><path style="stroke:none" d="M 22.1875 0.40625 C 19.46875 0.40625 16.921875 -0.113281 14.546875 -1.15625 C 12.179688 -2.195312 10.09375 -3.609375 8.28125 -5.390625 C 6.488281 -7.148438 5.066406 -9.226562 4.015625 -11.625 C 2.960938 -14.03125 2.4375 -16.59375 2.4375 -19.3125 C 2.4375 -22.1875 2.96875 -24.828125 4.03125 -27.234375 C 5.101562 -29.648438 6.554688 -31.738281 8.390625 -33.5 C 10.234375 -35.226562 12.363281 -36.585938 14.78125 -37.578125 C 17.207031 -38.566406 19.78125 -39.0625 22.5 -39.0625 C 25.21875 -39.0625 27.753906 -38.578125 30.109375 -37.609375 C 32.472656 -36.648438 34.535156 -35.320312 36.296875 -33.625 C 38.054688 -31.914062 39.441406 -29.890625 40.453125 -27.546875 C 41.460938 -25.203125 41.96875 -22.65625 41.96875 -19.90625 C 41.96875 -18.570312 41.617188 -17.675781 40.921875 -17.21875 C 40.234375 -16.769531 39.050781 -16.546875 37.375 -16.546875 L 12.109375 -16.546875 C 12.210938 -15.328125 12.550781 -14.171875 13.125 -13.078125 C 13.695312 -11.984375 14.4375 -11.007812 15.34375 -10.15625 C 16.25 -9.332031 17.289062 -8.660156 18.46875 -8.140625 C 19.644531 -7.617188 20.898438 -7.359375 22.234375 -7.359375 C 24.867188 -7.359375 27.1875 -8.210938 29.1875 -9.921875 C 29.738281 -10.234375 30.398438 -10.398438 31.171875 -10.421875 C 31.953125 -10.453125 32.703125 -10.335938 33.421875 -10.078125 C 34.140625 -9.804688 34.75 -9.367188 35.25 -8.765625 C 35.757812 -8.171875 36.015625 -7.421875 36.015625 -6.515625 C 36.015625 -5.472656 35.585938 -4.53125 34.734375 -3.6875 C 33.878906 -2.851562 32.789062 -2.128906 31.46875 -1.515625 C 30.132812 -0.929688 28.640625 -0.460938 26.984375 -0.109375 C 25.328125 0.234375 23.726562 0.40625 22.1875 0.40625 Z M 22.5 -31.375 C 21.195312 -31.375 19.945312 -31.144531 18.75 -30.6875 C 17.550781 -30.238281 16.484375 -29.617188 15.546875 -28.828125 C 14.617188 -28.023438 13.835938 -27.082031 13.203125 -26 C 12.578125 -24.925781 12.1875 -23.75 12.03125 -22.46875 L 32.46875 -22.46875 C 32.351562 -23.75 32.007812 -24.925781 31.4375 -26 C 30.863281 -27.082031 30.140625 -28.023438 29.265625 -28.828125 C 28.359375 -29.617188 27.320312 -30.238281 26.15625 -30.6875 C 25 -31.144531 23.78125 -31.375 22.5 -31.375 Z M 22.5 -31.375 "/></g></g><g style="fill:#000000;fill-opacity:1;"><g transform="translate(259.507459, 205.877593)"><path style="stroke:none" d="M 22.1875 0.40625 C 19.46875 0.40625 16.921875 -0.113281 14.546875 -1.15625 C 12.179688 -2.195312 10.09375 -3.609375 8.28125 -5.390625 C 6.488281 -7.148438 5.066406 -9.226562 4.015625 -11.625 C 2.960938 -14.03125 2.4375 -16.59375 2.4375 -19.3125 C 2.4375 -22.1875 2.96875 -24.828125 4.03125 -27.234375 C 5.101562 -29.648438 6.554688 -31.738281 8.390625 -33.5 C 10.234375 -35.226562 12.363281 -36.585938 14.78125 -37.578125 C 17.207031 -38.566406 19.78125 -39.0625 22.5 -39.0625 C 25.21875 -39.0625 27.753906 -38.578125 30.109375 -37.609375 C 32.472656 -36.648438 34.535156 -35.320312 36.296875 -33.625 C 38.054688 -31.914062 39.441406 -29.890625 40.453125 -27.546875 C 41.460938 -25.203125 41.96875 -22.65625 41.96875 -19.90625 C 41.96875 -18.570312 41.617188 -17.675781 40.921875 -17.21875 C 40.234375 -16.769531 39.050781 -16.546875 37.375 -16.546875 L 12.109375 -16.546875 C 12.210938 -15.328125 12.550781 -14.171875 13.125 -13.078125 C 13.695312 -11.984375 14.4375 -11.007812 15.34375 -10.15625 C 16.25 -9.332031 17.289062 -8.660156 18.46875 -8.140625 C 19.644531 -7.617188 20.898438 -7.359375 22.234375 -7.359375 C 24.867188 -7.359375 27.1875 -8.210938 29.1875 -9.921875 C 29.738281 -10.234375 30.398438 -10.398438 31.171875 -10.421875 C 31.953125 -10.453125 32.703125 -10.335938 33.421875 -10.078125 C 34.140625 -9.804688 34.75 -9.367188 35.25 -8.765625 C 35.757812 -8.171875 36.015625 -7.421875 36.015625 -6.515625 C 36.015625 -5.472656 35.585938 -4.53125 34.734375 -3.6875 C 33.878906 -2.851562 32.789062 -2.128906 31.46875 -1.515625 C 30.132812 -0.929688 28.640625 -0.460938 26.984375 -0.109375 C 25.328125 0.234375 23.726562 0.40625 22.1875 0.40625 Z M 22.5 -31.375 C 21.195312 -31.375 19.945312 -31.144531 18.75 -30.6875 C 17.550781 -30.238281 16.484375 -29.617188 15.546875 -28.828125 C 14.617188 -28.023438 13.835938 -27.082031 13.203125 -26 C 12.578125 -24.925781 12.1875 -23.75 12.03125 -22.46875 L 32.46875 -22.46875 C 32.351562 -23.75 32.007812 -24.925781 31.4375 -26 C 30.863281 -27.082031 30.140625 -28.023438 29.265625 -28.828125 C 28.359375 -29.617188 27.320312 -30.238281 26.15625 -30.6875 C 25 -31.144531 23.78125 -31.375 22.5 -31.375 Z M 22.5 -31.375 "/></g></g><g style="fill:#000000;fill-opacity:1;"><g transform="translate(300.479078, 205.877593)"><path style="stroke:none" d="M 22.1875 0.40625 C 19.46875 0.40625 16.921875 -0.113281 14.546875 -1.15625 C 12.179688 -2.195312 10.09375 -3.609375 8.28125 -5.390625 C 6.488281 -7.148438 5.066406 -9.226562 4.015625 -11.625 C 2.960938 -14.03125 2.4375 -16.59375 2.4375 -19.3125 C 2.4375 -22.1875 2.96875 -24.828125 4.03125 -27.234375 C 5.101562 -29.648438 6.554688 -31.738281 8.390625 -33.5 C 10.234375 -35.226562 12.363281 -36.585938 14.78125 -37.578125 C 17.207031 -38.566406 19.78125 -39.0625 22.5 -39.0625 C 25.21875 -39.0625 27.753906 -38.578125 30.109375 -37.609375 C 32.472656 -36.648438 34.535156 -35.320312 36.296875 -33.625 C 38.054688 -31.914062 39.441406 -29.890625 40.453125 -27.546875 C 41.460938 -25.203125 41.96875 -22.65625 41.96875 -19.90625 C 41.96875 -18.570312 41.617188 -17.675781 40.921875 -17.21875 C 40.234375 -16.769531 39.050781 -16.546875 37.375 -16.546875 L 12.109375 -16.546875 C 12.210938 -15.328125 12.550781 -14.171875 13.125 -13.078125 C 13.695312 -11.984375 14.4375 -11.007812 15.34375 -10.15625 C 16.25 -9.332031 17.289062 -8.660156 18.46875 -8.140625 C 19.644531 -7.617188 20.898438 -7.359375 22.234375 -7.359375 C 24.867188 -7.359375 27.1875 -8.210938 29.1875 -9.921875 C 29.738281 -10.234375 30.398438 -10.398438 31.171875 -10.421875 C 31.953125 -10.453125 32.703125 -10.335938 33.421875 -10.078125 C 34.140625 -9.804688 34.75 -9.367188 35.25 -8.765625 C 35.757812 -8.171875 36.015625 -7.421875 36.015625 -6.515625 C 36.015625 -5.472656 35.585938 -4.53125 34.734375 -3.6875 C 33.878906 -2.851562 32.789062 -2.128906 31.46875 -1.515625 C 30.132812 -0.929688 28.640625 -0.460938 26.984375 -0.109375 C 25.328125 0.234375 23.726562 0.40625 22.1875 0.40625 Z M 22.5 -31.375 C 21.195312 -31.375 19.945312 -31.144531 18.75 -30.6875 C 17.550781 -30.238281 16.484375 -29.617188 15.546875 -28.828125 C 14.617188 -28.023438 13.835938 -27.082031 13.203125 -26 C 12.578125 -24.925781 12.1875 -23.75 12.03125 -22.46875 L 32.46875 -22.46875 C 32.351562 -23.75 32.007812 -24.925781 31.4375 -26 C 30.863281 -27.082031 30.140625 -28.023438 29.265625 -28.828125 C 28.359375 -29.617188 27.320312 -30.238281 26.15625 -30.6875 C 25 -31.144531 23.78125 -31.375 22.5 -31.375 Z M 22.5 -31.375 "/></g></g></g></svg>